<svg xmlns="http://www.w3.org/2000/svg" xmlns:xlink="http://www.w3.org/1999/xlink" viewBox="0 0 1280 720" width="1280" height="720" preserveAspectRatio="xMidYMid meet" style="width: 160px; height: 90px; content-visibility: visible; overflow: hidden;"><defs><clipPath id="__lottie_element_2"><rect width="1280" height="720" x="0" y="0"></rect></clipPath><linearGradient id="__lottie_element_6" spreadMethod="pad" gradientUnits="userSpaceOnUse" x1="-662" y1="-348" x2="688" y2="404"><stop offset="0%" stop-color="rgb(38,63,72)"></stop><stop offset="20%" stop-color="rgb(38,63,72)"></stop><stop offset="48%" stop-color="rgb(38,63,72)"></stop><stop offset="74%" stop-color="rgb(38,63,72)"></stop><stop offset="100%" stop-color="rgb(12,38,63)"></stop></linearGradient><linearGradient id="__lottie_element_10" spreadMethod="pad" gradientUnits="userSpaceOnUse" x1="-446.8810119628906" y1="287.7669982910156" x2="2.0290000438690186" y2="-31.565000534057617"><stop offset="0%" stop-color="rgb(143,123,66)"></stop><stop offset="38%" stop-color="rgb(172,159,95)"></stop><stop offset="100%" stop-color="rgb(201,195,124)"></stop></linearGradient><linearGradient id="__lottie_element_14" spreadMethod="pad" gradientUnits="userSpaceOnUse" x1="-303.9129943847656" y1="221.5590057373047" x2="100" y2="0"><stop offset="0%" stop-color="rgb(143,123,66)"></stop><stop offset="38%" stop-color="rgb(172,159,95)"></stop><stop offset="100%" stop-color="rgb(201,195,124)"></stop></linearGradient><linearGradient id="__lottie_element_18" spreadMethod="pad" gradientUnits="userSpaceOnUse" x1="-362.2699890136719" y1="229.5330047607422" x2="64.13200378417969" y2="2.3589999675750732"><stop offset="0%" stop-color="rgb(143,123,66)"></stop><stop offset="38%" stop-color="rgb(172,159,95)"></stop><stop offset="100%" stop-color="rgb(201,195,124)"></stop></linearGradient><linearGradient id="__lottie_element_22" spreadMethod="pad" gradientUnits="userSpaceOnUse" x1="0" y1="0" x2="100" y2="0"><stop offset="0%" stop-color="rgb(143,123,66)"></stop><stop offset="38%" stop-color="rgb(172,159,95)"></stop><stop offset="100%" stop-color="rgb(201,195,124)"></stop></linearGradient><linearGradient id="__lottie_element_26" spreadMethod="pad" gradientUnits="userSpaceOnUse" x1="-363.1969909667969" y1="201.031005859375" x2="100" y2="0"><stop offset="0%" stop-color="rgb(143,123,66)"></stop><stop offset="38%" stop-color="rgb(172,159,95)"></stop><stop offset="100%" stop-color="rgb(201,195,124)"></stop></linearGradient><linearGradient id="__lottie_element_30" spreadMethod="pad" gradientUnits="userSpaceOnUse" x1="-388.3909912109375" y1="277.6679992675781" x2="100" y2="0"><stop offset="0%" stop-color="rgb(143,123,66)"></stop><stop offset="38%" stop-color="rgb(172,159,95)"></stop><stop offset="100%" stop-color="rgb(201,195,124)"></stop></linearGradient><linearGradient id="__lottie_element_34" spreadMethod="pad" gradientUnits="userSpaceOnUse" x1="0" y1="0" x2="100" y2="0"><stop offset="0%" stop-color="rgb(143,123,66)"></stop><stop offset="38%" stop-color="rgb(172,159,95)"></stop><stop offset="100%" stop-color="rgb(201,195,124)"></stop></linearGradient><linearGradient id="__lottie_element_38" spreadMethod="pad" gradientUnits="userSpaceOnUse" x1="-460.0679931640625" y1="283.7569885253906" x2="100" y2="0"><stop offset="0%" stop-color="rgb(143,123,66)"></stop><stop offset="38%" stop-color="rgb(172,159,95)"></stop><stop offset="100%" stop-color="rgb(201,195,124)"></stop></linearGradient><linearGradient id="__lottie_element_42" spreadMethod="pad" gradientUnits="userSpaceOnUse" x1="-384.0820007324219" y1="241.0399932861328" x2="100" y2="0"><stop offset="0%" stop-color="rgb(143,123,66)"></stop><stop offset="38%" stop-color="rgb(172,159,95)"></stop><stop offset="100%" stop-color="rgb(201,195,124)"></stop></linearGradient><linearGradient id="__lottie_element_46" spreadMethod="pad" gradientUnits="userSpaceOnUse" x1="0" y1="0" x2="100" y2="0"><stop offset="0%" stop-color="rgb(143,123,66)"></stop><stop offset="38%" stop-color="rgb(172,159,95)"></stop><stop offset="100%" stop-color="rgb(201,195,124)"></stop></linearGradient><linearGradient id="__lottie_element_50" spreadMethod="pad" gradientUnits="userSpaceOnUse" x1="-415.9419860839844" y1="279.0220031738281" x2="100" y2="0"><stop offset="0%" stop-color="rgb(143,123,66)"></stop><stop offset="38%" stop-color="rgb(172,159,95)"></stop><stop offset="100%" stop-color="rgb(201,195,124)"></stop></linearGradient><linearGradient id="__lottie_element_54" spreadMethod="pad" gradientUnits="userSpaceOnUse" x1="0" y1="0" x2="100" y2="0"><stop offset="0%" stop-color="rgb(143,123,66)"></stop><stop offset="38%" stop-color="rgb(172,159,95)"></stop><stop offset="100%" stop-color="rgb(201,195,124)"></stop></linearGradient><linearGradient id="__lottie_element_58" spreadMethod="pad" gradientUnits="userSpaceOnUse" x1="-265.83599853515625" y1="195.38999938964844" x2="100" y2="0"><stop offset="0%" stop-color="rgb(143,123,66)"></stop><stop offset="38%" stop-color="rgb(172,159,95)"></stop><stop offset="100%" stop-color="rgb(201,195,124)"></stop></linearGradient><linearGradient id="__lottie_element_62" spreadMethod="pad" gradientUnits="userSpaceOnUse" x1="-326.9859924316406" y1="229.1909942626953" x2="85.08999633789062" y2="-92.01699829101562"><stop offset="0%" stop-color="rgb(143,123,66)"></stop><stop offset="38%" stop-color="rgb(172,159,95)"></stop><stop offset="100%" stop-color="rgb(201,195,124)"></stop></linearGradient><linearGradient id="__lottie_element_66" spreadMethod="pad" gradientUnits="userSpaceOnUse" x1="-404.8070068359375" y1="271.8760070800781" x2="119.3290023803711" y2="-161.15499877929688"><stop offset="0%" stop-color="rgb(143,123,66)"></stop><stop offset="38%" stop-color="rgb(172,159,95)"></stop><stop offset="100%" stop-color="rgb(201,195,124)"></stop></linearGradient><linearGradient id="__lottie_element_70" spreadMethod="pad" gradientUnits="userSpaceOnUse" x1="-290.68701171875" y1="147.2429962158203" x2="100" y2="0"><stop offset="0%" stop-color="rgb(143,123,66)"></stop><stop offset="38%" stop-color="rgb(172,159,95)"></stop><stop offset="100%" stop-color="rgb(201,195,124)"></stop></linearGradient><linearGradient id="__lottie_element_74" spreadMethod="pad" gradientUnits="userSpaceOnUse" x1="0" y1="0" x2="100" y2="0"><stop offset="0%" stop-color="rgb(143,123,66)"></stop><stop offset="38%" stop-color="rgb(172,159,95)"></stop><stop offset="100%" stop-color="rgb(201,195,124)"></stop></linearGradient><radialGradient id="__lottie_element_78" spreadMethod="pad" gradientUnits="userSpaceOnUse" cx="0" cy="0" r="100" fx="0" fy="0"><stop offset="2%" stop-color="rgb(173,162,99)"></stop><stop offset="51%" stop-color="rgb(132,122,77)"></stop><stop offset="100%" stop-color="rgb(91,81,54)"></stop></radialGradient><radialGradient id="__lottie_element_82" spreadMethod="pad" gradientUnits="userSpaceOnUse" cx="0" cy="0" r="100" fx="0" fy="0"><stop offset="2%" stop-color="rgb(173,162,99)"></stop><stop offset="51%" stop-color="rgb(132,122,77)"></stop><stop offset="100%" stop-color="rgb(91,81,54)"></stop></radialGradient><radialGradient id="__lottie_element_86" spreadMethod="pad" gradientUnits="userSpaceOnUse" cx="0" cy="0" r="100" fx="0" fy="0"><stop offset="2%" stop-color="rgb(173,162,99)"></stop><stop offset="51%" stop-color="rgb(132,122,77)"></stop><stop offset="100%" stop-color="rgb(91,81,54)"></stop></radialGradient><radialGradient id="__lottie_element_90" spreadMethod="pad" gradientUnits="userSpaceOnUse" cx="0" cy="0" r="100" fx="0" fy="0"><stop offset="2%" stop-color="rgb(173,162,99)"></stop><stop offset="51%" stop-color="rgb(132,122,77)"></stop><stop offset="100%" stop-color="rgb(91,81,54)"></stop></radialGradient><radialGradient id="__lottie_element_94" spreadMethod="pad" gradientUnits="userSpaceOnUse" cx="0" cy="0" r="100" fx="0" fy="0"><stop offset="2%" stop-color="rgb(173,162,99)"></stop><stop offset="51%" stop-color="rgb(132,122,77)"></stop><stop offset="100%" stop-color="rgb(91,81,54)"></stop></radialGradient><radialGradient id="__lottie_element_98" spreadMethod="pad" gradientUnits="userSpaceOnUse" cx="0" cy="0" r="100" fx="0" fy="0"><stop offset="2%" stop-color="rgb(173,162,99)"></stop><stop offset="51%" stop-color="rgb(132,122,77)"></stop><stop offset="100%" stop-color="rgb(91,81,54)"></stop></radialGradient></defs><g clip-path="url(#__lottie_element_2)"><g transform="matrix(1,0,0,1,640,360)" opacity="1"><g opacity="1" transform="matrix(1,0,0,1,-12,-5)"><path fill="url(#__lottie_element_6)" fill-opacity="1" d=" M680,-391 C680,-391 680,391 680,391 C680,391 -680,391 -680,391 C-680,391 -680,-391 -680,-391 C-680,-391 680,-391 680,-391z"></path><path stroke-linecap="butt" stroke-linejoin="miter" fill-opacity="0" stroke-miterlimit="4" stroke="rgb(158,209,255)" stroke-opacity="1" stroke-width="2" d=" M680,-391 C680,-391 680,391 680,391 C680,391 -680,391 -680,391 C-680,391 -680,-391 -680,-391 C-680,-391 680,-391 680,-391z"></path></g></g><g transform="matrix(0.6698979735374451,-0.011693112552165985,0.011693112552165985,0.6698979735374451,315,30)" opacity="1"><g opacity="1" transform="matrix(1,0,0,1,0,0)"><path stroke="url(#__lottie_element_10)" stroke-linecap="butt" stroke-linejoin="miter" fill-opacity="0" stroke-miterlimit="4" stroke-opacity="1" stroke-width="2" d=" M-703.3822631835938,366.1074523925781 C-703.3822631835938,366.1074523925781 -510.9598693847656,438.8400573730469 -423.0668640136719,335.73443603515625 C-319.0668640136719,213.73443603515625 -262.6617431640625,164.2731475830078 -157.66375732421875,114.92414093017578 C42.33624267578125,20.924142837524414 -74.31800079345703,-58.534000396728516 40,-126 C162,-198 180,-304 139.99899291992188,-380 C74.5739974975586,-504.30499267578125 -2,-484 10,-526"></path></g></g><g transform="matrix(0.8198751211166382,-0.014310972765088081,0.014310972765088081,0.8198751211166382,365,114)" opacity="1"><g opacity="1" transform="matrix(1,0,0,1,0,0)"><path stroke="url(#__lottie_element_14)" stroke-linecap="butt" stroke-linejoin="miter" fill-opacity="0" stroke-miterlimit="4" stroke-opacity="1" stroke-width="2" d=" M-702.8619384765625,368.5144348144531 C-702.8619384765625,368.5144348144531 -511.34490966796875,428.1322326660156 -423.451904296875,325.02679443359375 C-319.451904296875,203.0267791748047 -250.9736328125,158.57620239257812 -145.9756317138672,109.22720336914062 C54.02436828613281,15.227206230163574 -74.31800079345703,-58.534000396728516 40,-126 C162,-198 180,-304 139.99899291992188,-380 C74.5739974975586,-504.30499267578125 -2,-484 10,-526"></path></g></g><g transform="matrix(0.6698979735374451,-0.011693112552165985,0.011693112552165985,0.6698979735374451,261,-18)" opacity="1"><g opacity="1" transform="matrix(1,0,0,1,0,0)"><path stroke="url(#__lottie_element_18)" stroke-linecap="butt" stroke-linejoin="miter" fill-opacity="0" stroke-miterlimit="4" stroke-opacity="1" stroke-width="2" d=" M-703.5718383789062,365.230712890625 C-703.5718383789062,365.230712890625 -510.8196105957031,442.74041748046875 -422.9266052246094,339.63470458984375 C-318.9266052246094,217.63470458984375 -266.9191589355469,166.34825134277344 -161.92117309570312,116.99925231933594 C38.078834533691406,22.999256134033203 -74.31800079345703,-58.534000396728516 40,-126 C162,-198 180,-304 139.99899291992188,-380 C74.5739974975586,-504.30499267578125 -2,-484 10,-526"></path></g></g><g transform="matrix(0.6698979735374451,-0.011693112552165985,0.011693112552165985,0.6698979735374451,143,0)" opacity="1"><g opacity="1" transform="matrix(1,0,0,1,0,0)"><path stroke="url(#__lottie_element_22)" stroke-linecap="butt" stroke-linejoin="miter" fill-opacity="0" stroke-miterlimit="4" stroke-opacity="1" stroke-width="2" d=" M-703.20068359375,366.9474792480469 C-703.20068359375,366.9474792480469 -511.09423828125,435.1031188964844 -423.20123291015625,331.99755859375 C-319.20123291015625,209.99755859375 -258.58270263671875,162.2849578857422 -153.58470153808594,112.93595886230469 C46.41530227661133,18.935958862304688 -74.31800079345703,-58.534000396728516 40,-126 C162,-198 180,-304 139.99899291992188,-380 C74.5739974975586,-504.30499267578125 -2,-484 10,-526"></path></g></g><g transform="matrix(1.0898339748382568,-0.019023124128580093,0.019023124128580093,1.0898339748382568,401,214)" opacity="1"><g opacity="1" transform="matrix(1,0,0,1,0,0)"><path stroke="url(#__lottie_element_26)" stroke-linecap="butt" stroke-linejoin="miter" fill-opacity="0" stroke-miterlimit="4" stroke-opacity="1" stroke-width="2" d=" M-704.0371704101562,363.078369140625 C-704.0371704101562,363.078369140625 -510.4753112792969,452.3153381347656 -422.5823059082031,349.20947265625 C-318.5823059082031,227.20947265625 -277.37066650390625,171.44244384765625 -172.37266540527344,122.09344482421875 C27.627334594726562,28.093446731567383 -74.31800079345703,-58.534000396728516 40,-126 C162,-198 180,-304 139.99899291992188,-380 C74.5739974975586,-504.30499267578125 -2,-484 10,-526"></path></g></g><g transform="matrix(1.0898339748382568,-0.019023124128580093,0.019023124128580093,1.0898339748382568,517,208)" opacity="1"><g opacity="1" transform="matrix(1,0,0,1,0,0)"><path stroke="url(#__lottie_element_30)" stroke-linecap="butt" stroke-linejoin="miter" fill-opacity="0" stroke-miterlimit="4" stroke-opacity="1" stroke-width="2" d=" M-703.7614135742188,364.35394287109375 C-703.7614135742188,364.35394287109375 -510.67938232421875,446.6407470703125 -422.786376953125,343.53497314453125 C-318.786376953125,221.5349884033203 -271.17657470703125,168.42337036132812 -166.17857360839844,119.07437133789062 C33.82142639160156,25.074369430541992 -74.31800079345703,-58.534000396728516 40,-126 C162,-198 180,-304 139.99899291992188,-380 C74.5739974975586,-504.30499267578125 -2,-484 10,-526"></path></g></g><g transform="matrix(1.0898339748382568,-0.019023124128580093,0.019023124128580093,1.0898339748382568,545,304)" opacity="1"><g opacity="1" transform="matrix(1,0,0,1,0,0)"><path stroke="url(#__lottie_element_34)" stroke-linecap="butt" stroke-linejoin="miter" fill-opacity="0" stroke-miterlimit="4" stroke-opacity="1" stroke-width="2" d=" M-703.5521850585938,365.3215026855469 C-703.5521850585938,365.3215026855469 -510.8341369628906,442.33642578125 -422.9411315917969,339.2307434082031 C-318.9411315917969,217.2307586669922 -266.47821044921875,166.13333129882812 -161.48020935058594,116.78433227539062 C38.51978302001953,22.784332275390625 -74.31800079345703,-58.534000396728516 40,-126 C162,-198 180,-304 139.99899291992188,-380 C74.5739974975586,-504.30499267578125 -2,-484 10,-526"></path></g></g><g transform="matrix(1.0898339748382568,-0.019023124128580093,0.019023124128580093,1.0898339748382568,651,306)" opacity="1"><g opacity="1" transform="matrix(1,0,0,1,0,0)"><path stroke="url(#__lottie_element_38)" stroke-linecap="butt" stroke-linejoin="miter" fill-opacity="0" stroke-miterlimit="4" stroke-opacity="1" stroke-width="2" d=" M-703.6580200195312,364.8320617675781 C-703.6580200195312,364.8320617675781 -510.755859375,444.51385498046875 -422.86285400390625,341.40814208984375 C-318.86285400390625,219.40814208984375 -268.85498046875,167.2917938232422 -163.8569793701172,117.94279479980469 C36.14301681518555,23.94279670715332 -74.31800079345703,-58.534000396728516 40,-126 C162,-198 180,-304 139.99899291992188,-380 C74.5739974975586,-504.30499267578125 -2,-484 10,-526"></path></g></g><g transform="matrix(1.0898339748382568,-0.019023124128580093,0.019023124128580093,1.0898339748382568,737,334)" opacity="1"><g opacity="1" transform="matrix(1,0,0,1,0,0)"><path stroke="url(#__lottie_element_42)" stroke-linecap="butt" stroke-linejoin="miter" fill-opacity="0" stroke-miterlimit="4" stroke-opacity="1" stroke-width="2" d=" M-702.9110717773438,368.2872314453125 C-702.9110717773438,368.2872314453125 -511.3085632324219,429.1429748535156 -423.4155578613281,326.0375061035156 C-319.4155578613281,204.0375213623047 -252.07691955566406,159.1139678955078 -147.07891845703125,109.76496124267578 C52.92108154296875,15.764961242675781 -74.31800079345703,-58.534000396728516 40,-126 C162,-198 180,-304 139.99899291992188,-380 C74.5739974975586,-504.30499267578125 -2,-484 10,-526"></path></g></g><g transform="matrix(1.0898339748382568,-0.019023124128580093,0.019023124128580093,1.0898339748382568,793,378)" opacity="1"><g opacity="1" transform="matrix(1,0,0,1,0,0)"><path stroke="url(#__lottie_element_46)" stroke-linecap="butt" stroke-linejoin="miter" fill-opacity="0" stroke-miterlimit="4" stroke-opacity="1" stroke-width="2" d=" M-702.0390014648438,372.3207702636719 C-702.0390014648438,372.3207702636719 -511.95379638671875,411.1992492675781 -424.060791015625,308.0941162109375 C-320.060791015625,186.09410095214844 -232.490478515625,149.56729125976562 -127.49247741699219,100.21829223632812 C72.50752258300781,6.218289375305176 -74.31800079345703,-58.534000396728516 40,-126 C162,-198 180,-304 139.99899291992188,-380 C74.5739974975586,-504.30499267578125 -2,-484 10,-526"></path></g></g><g transform="matrix(1.0898339748382568,-0.019023124128580093,0.019023124128580093,1.0898339748382568,933,344)" opacity="1"><g opacity="1" transform="matrix(1,0,0,1,0,0)"><path stroke="url(#__lottie_element_50)" stroke-linecap="butt" stroke-linejoin="miter" fill-opacity="0" stroke-miterlimit="4" stroke-opacity="1" stroke-width="2" d=" M-703.3822631835938,366.1074523925781 C-703.3822631835938,366.1074523925781 -510.9598693847656,438.8400573730469 -423.0668640136719,335.73443603515625 C-319.0668640136719,213.73443603515625 -262.6617431640625,164.2731475830078 -157.66375732421875,114.92414093017578 C42.33624267578125,20.924142837524414 -74.31800079345703,-58.534000396728516 40,-126 C162,-198 180,-304 139.99899291992188,-380 C74.5739974975586,-504.30499267578125 -2,-484 10,-526"></path></g></g><g transform="matrix(1.0898339748382568,-0.019023124128580093,0.019023124128580093,1.0898339748382568,995,380)" opacity="1"><g opacity="1" transform="matrix(1,0,0,1,0,0)"><path stroke="url(#__lottie_element_54)" stroke-linecap="butt" stroke-linejoin="miter" fill-opacity="0" stroke-miterlimit="4" stroke-opacity="1" stroke-width="2" d=" M-703.87548828125,363.8262634277344 C-703.87548828125,363.8262634277344 -510.594970703125,448.9881896972656 -422.70196533203125,345.88238525390625 C-318.70196533203125,223.88238525390625 -273.7389221191406,169.6722869873047 -168.7409210205078,120.32328796386719 C31.25908660888672,26.323286056518555 -74.31800079345703,-58.534000396728516 40,-126 C162,-198 180,-304 139.99899291992188,-380 C74.5739974975586,-504.30499267578125 -2,-484 10,-526"></path></g></g><g transform="matrix(1.0898339748382568,-0.019023124128580093,0.019023124128580093,1.0898339748382568,1135,336)" opacity="1"><g opacity="1" transform="matrix(1,0,0,1,0,0)"><path stroke="url(#__lottie_element_58)" stroke-linecap="butt" stroke-linejoin="miter" fill-opacity="0" stroke-miterlimit="4" stroke-opacity="1" stroke-width="2" d=" M-703.6168823242188,365.0224609375 C-703.6168823242188,365.0224609375 -510.78631591796875,443.6667785644531 -422.893310546875,340.5610656738281 C-318.893310546875,218.5610809326172 -267.93035888671875,166.84112548828125 -162.93235778808594,117.49211883544922 C37.06764221191406,23.492122650146484 -74.31800079345703,-58.534000396728516 40,-126 C162,-198 180,-304 139.99899291992188,-380 C74.5739974975586,-504.30499267578125 -2,-484 10,-526"></path></g></g><g transform="matrix(1.0898339748382568,-0.019023124128580093,0.019023124128580093,1.0898339748382568,1157,416)" opacity="1"><g opacity="1" transform="matrix(1,0,0,1,0,0)"><path stroke="url(#__lottie_element_62)" stroke-linecap="butt" stroke-linejoin="miter" fill-opacity="0" stroke-miterlimit="4" stroke-opacity="1" stroke-width="2" d=" M-704.259765625,362.0487976074219 C-704.259765625,362.0487976074219 -510.3106384277344,456.8955078125 -422.4176330566406,353.78955078125 C-318.4176330566406,231.78955078125 -282.3701171875,173.87924194335938 -177.37213134765625,124.53024291992188 C22.627872467041016,30.530244827270508 -74.31800079345703,-58.534000396728516 40,-126 C162,-198 180,-304 139.99899291992188,-380 C74.5739974975586,-504.30499267578125 -2,-484 10,-526"></path></g></g><g transform="matrix(1.0898339748382568,-0.019023124128580093,0.019023124128580093,1.0898339748382568,1203,470)" opacity="1"><g opacity="1" transform="matrix(1,0,0,1,0,0)"><path stroke="url(#__lottie_element_66)" stroke-linecap="butt" stroke-linejoin="miter" fill-opacity="0" stroke-miterlimit="4" stroke-opacity="1" stroke-width="2" d=" M-703.0682983398438,367.559814453125 C-703.0682983398438,367.559814453125 -511.19219970703125,432.3790588378906 -423.2991943359375,329.2735595703125 C-319.2991943359375,207.2735595703125 -255.60926818847656,160.83567810058594 -150.61126708984375,111.4866714477539 C49.388729095458984,17.48667335510254 -74.31800079345703,-58.534000396728516 40,-126 C162,-198 180,-304 139.99899291992188,-380 C74.5739974975586,-504.30499267578125 -2,-484 10,-526"></path></g></g><g transform="matrix(1.0898339748382568,-0.019023124128580093,0.019023124128580093,1.0898339748382568,1273,524)" opacity="1"><g opacity="1" transform="matrix(1,0,0,1,0,0)"><path stroke="url(#__lottie_element_70)" stroke-linecap="butt" stroke-linejoin="miter" fill-opacity="0" stroke-miterlimit="4" stroke-opacity="1" stroke-width="2" d=" M-703.73388671875,364.4811096191406 C-703.73388671875,364.4811096191406 -510.69970703125,446.07513427734375 -422.80670166015625,342.9693908691406 C-318.80670166015625,220.96937561035156 -270.5591735839844,168.1224365234375 -165.56117248535156,118.77344512939453 C34.43882369995117,24.773441314697266 -74.31800079345703,-58.534000396728516 40,-126 C162,-198 180,-304 139.99899291992188,-380 C74.5739974975586,-504.30499267578125 -2,-484 10,-526"></path></g></g><g transform="matrix(1.0898339748382568,-0.019023124128580093,0.019023124128580093,1.0898339748382568,1299,612)" opacity="1"><g opacity="1" transform="matrix(1,0,0,1,0,0)"><path stroke="url(#__lottie_element_74)" stroke-linecap="butt" stroke-linejoin="miter" fill-opacity="0" stroke-miterlimit="4" stroke-opacity="1" stroke-width="2" d=" M-703.3822631835938,366.1074523925781 C-703.3822631835938,366.1074523925781 -510.9598693847656,438.8400573730469 -423.0668640136719,335.73443603515625 C-319.0668640136719,213.73443603515625 -262.6617431640625,164.2731475830078 -157.66375732421875,114.92414093017578 C42.33624267578125,20.924142837524414 -74.31800079345703,-58.534000396728516 40,-126 C162,-198 180,-304 139.99899291992188,-380 C74.5739974975586,-504.30499267578125 -2,-484 10,-526"></path></g></g><g transform="matrix(0.7200000286102295,0,0,0.7200000286102295,655.3078002929688,609.8029174804688)" opacity="1"><g opacity="1" transform="matrix(1,0,0,1,-513,-37)"><path fill="url(#__lottie_element_78)" fill-opacity="1" d=" M0,-15 C8.278499603271484,-15 15,-8.278499603271484 15,0 C15,8.278499603271484 8.278499603271484,15 0,15 C-8.278499603271484,15 -15,8.278499603271484 -15,0 C-15,-8.278499603271484 -8.278499603271484,-15 0,-15z"></path></g></g><g transform="matrix(0.49000000953674316,0,0,0.49000000953674316,333.2185363769531,561.1300048828125)" opacity="1"><g opacity="1" transform="matrix(1,0,0,1,-513,-37)"><path fill="url(#__lottie_element_82)" fill-opacity="1" d=" M0,-15 C8.278499603271484,-15 15,-8.278499603271484 15,0 C15,8.278499603271484 8.278499603271484,15 0,15 C-8.278499603271484,15 -15,8.278499603271484 -15,0 C-15,-8.278499603271484 -8.278499603271484,-15 0,-15z"></path></g></g><g transform="matrix(0.5400000214576721,0,0,0.5400000214576721,800.0874633789062,658.1463012695312)" opacity="1"><g opacity="1" transform="matrix(1,0,0,1,-513,-37)"><path fill="url(#__lottie_element_86)" fill-opacity="1" d=" M0,-15 C8.278499603271484,-15 15,-8.278499603271484 15,0 C15,8.278499603271484 8.278499603271484,15 0,15 C-8.278499603271484,15 -15,8.278499603271484 -15,0 C-15,-8.278499603271484 -8.278499603271484,-15 0,-15z"></path></g></g><g transform="matrix(0.5400000214576721,0,0,0.5400000214576721,1347.08740234375,537.1463012695312)" opacity="1"><g opacity="1" transform="matrix(1,0,0,1,-513,-37)"><path fill="url(#__lottie_element_90)" fill-opacity="1" d=" M0,-15 C8.278499603271484,-15 15,-8.278499603271484 15,0 C15,8.278499603271484 8.278499603271484,15 0,15 C-8.278499603271484,15 -15,8.278499603271484 -15,0 C-15,-8.278499603271484 -8.278499603271484,-15 0,-15z"></path></g></g><g transform="matrix(0.36000001430511475,0,0,0.36000001430511475,297.5161437988281,146.95928955078125)" opacity="1"><g opacity="1" transform="matrix(1,0,0,1,-513,-37)"><path fill="url(#__lottie_element_94)" fill-opacity="1" d=" M0,-15 C8.278499603271484,-15 15,-8.278499603271484 15,0 C15,8.278499603271484 8.278499603271484,15 0,15 C-8.278499603271484,15 -15,8.278499603271484 -15,0 C-15,-8.278499603271484 -8.278499603271484,-15 0,-15z"></path></g></g><g transform="matrix(0.7400000095367432,0,0,0.7400000095367432,1548.435302734375,169.69244384765625)" opacity="1"><g opacity="1" transform="matrix(1,0,0,1,-513,-37)"><path fill="url(#__lottie_element_98)" fill-opacity="1" d=" M0,-15 C8.278499603271484,-15 15,-8.278499603271484 15,0 C15,8.278499603271484 8.278499603271484,15 0,15 C-8.278499603271484,15 -15,8.278499603271484 -15,0 C-15,-8.278499603271484 -8.278499603271484,-15 0,-15z"></path></g></g></g></svg>