<svg width="136" height="23" viewBox="0 0 136 23" fill="none" xmlns="http://www.w3.org/2000/svg">
<path d="M16.317 13.2701C16.417 13.5501 16.487 13.87 16.527 14.2301C16.587 14.57 16.617 14.92 16.617 15.28C16.617 15.64 16.587 16 16.527 16.36C16.487 16.7 16.427 17 16.347 17.26C16.027 18.38 15.387 19.32 14.427 20.08C13.467 20.82 12.367 21.3601 11.127 21.7001C9.907 22.0401 8.637 22.16 7.317 22.06C6.017 21.96 4.857 21.63 3.837 21.07C3.197 20.71 2.647 20.27 2.187 19.75C1.727 19.23 1.337 18.65 1.017 18.01C0.896996 17.79 0.816996 17.54 0.776996 17.26C0.756996 16.96 0.786996 16.68 0.866996 16.42C0.946996 16.14 1.077 15.9 1.257 15.7C1.437 15.48 1.687 15.33 2.007 15.25C2.207 15.21 2.427 15.19 2.667 15.19C2.927 15.19 3.177 15.23 3.417 15.3101C3.657 15.37 3.877 15.48 4.077 15.64C4.277 15.78 4.437 15.98 4.557 16.24C4.777 16.66 5.087 17.05 5.487 17.41C5.907 17.75 6.347 18.03 6.807 18.25C7.467 18.47 8.127 18.56 8.787 18.5201C9.467 18.48 10.077 18.33 10.617 18.07C11.177 17.81 11.627 17.4601 11.967 17.0201C12.307 16.5601 12.477 16.04 12.477 15.46C12.477 14.98 12.407 14.59 12.267 14.29C12.127 13.97 11.927 13.71 11.667 13.51C11.427 13.29 11.127 13.11 10.767 12.97C10.427 12.83 10.047 12.71 9.627 12.61C9.147 12.51 8.657 12.44 8.157 12.4C7.677 12.36 7.187 12.31 6.687 12.25C6.187 12.19 5.697 12.11 5.217 12.01C4.737 11.91 4.267 11.76 3.807 11.56C2.887 11.18 2.187 10.6 1.707 9.82005C1.227 9.04005 0.936996 8.20005 0.836996 7.30005C0.756996 6.40005 0.866996 5.51005 1.167 4.63005C1.467 3.73005 1.947 2.96005 2.607 2.32005C3.247 1.74005 4.007 1.33005 4.887 1.09005C5.787 0.830049 6.777 0.680049 7.857 0.640049C8.457 0.620049 9.057 0.640048 9.657 0.700049C10.277 0.760049 10.867 0.860049 11.427 1.00005C12.007 1.14005 12.537 1.32005 13.017 1.54005C13.517 1.76005 13.947 2.02005 14.307 2.32005C14.567 2.52005 14.827 2.79005 15.087 3.13005C15.347 3.45005 15.547 3.80005 15.687 4.18005C15.827 4.54005 15.867 4.89005 15.807 5.23005C15.767 5.57005 15.557 5.86005 15.177 6.10005C14.857 6.30005 14.547 6.39005 14.247 6.37005C13.967 6.33005 13.697 6.24005 13.437 6.10005C13.177 5.94005 12.927 5.76005 12.687 5.56005C12.447 5.36005 12.227 5.18005 12.027 5.02005C11.487 4.62005 10.817 4.35005 10.017 4.21005C9.217 4.07005 8.467 4.04005 7.767 4.12005C7.327 4.18005 6.917 4.28005 6.537 4.42005C6.157 4.56005 5.827 4.75005 5.547 4.99005C5.287 5.23005 5.077 5.53005 4.917 5.89005C4.777 6.23005 4.727 6.62005 4.767 7.06005C4.787 7.38005 4.877 7.65005 5.037 7.87005C5.217 8.09005 5.427 8.27005 5.667 8.41005C5.927 8.55005 6.207 8.66005 6.507 8.74005C6.807 8.82005 7.107 8.88005 7.407 8.92005C8.307 9.04005 9.207 9.13005 10.107 9.19005C11.007 9.25005 11.887 9.45005 12.747 9.79005C13.627 10.13 14.377 10.59 14.997 11.17C15.617 11.75 16.057 12.45 16.317 13.2701Z" fill="#fff"/>
<path d="M34.3878 1.69005C34.6078 1.95005 34.7178 2.22005 34.7178 2.50005C34.7178 2.62005 34.7078 2.75005 34.6878 2.89005C34.6878 3.01005 34.6778 3.12005 34.6578 3.22005C34.5978 3.44005 34.4678 3.65005 34.2678 3.85005C34.1078 3.97005 33.8878 4.06005 33.6078 4.12005C33.4678 4.16005 33.3278 4.19005 33.1878 4.21005C33.0478 4.23005 32.8978 4.26005 32.7378 4.30005C32.5978 4.32005 32.4578 4.33005 32.3178 4.33005C32.1778 4.33005 32.0278 4.33005 31.8678 4.33005H30.3378C29.9778 4.35005 29.6178 4.36005 29.2578 4.36005C28.9178 4.36005 28.5778 4.36005 28.2378 4.36005C28.2578 4.98005 28.2678 5.65005 28.2678 6.37005C28.2678 7.07005 28.2578 7.89005 28.2378 8.83005C28.2378 9.77005 28.2278 10.86 28.2078 12.1C28.2078 13.34 28.2078 14.78 28.2078 16.42V18.7001C28.2078 18.9001 28.2178 19.05 28.2378 19.15C28.2378 19.23 28.2378 19.31 28.2378 19.39C28.2378 19.45 28.2278 19.5301 28.2078 19.6301C28.1678 19.8101 28.1378 20.02 28.1178 20.26C28.1178 20.36 28.1078 20.46 28.0878 20.56C28.0678 20.64 28.0378 20.73 27.9978 20.83C27.9178 20.91 27.8778 20.97 27.8778 21.01L27.7878 21.1901C27.6878 21.3901 27.4978 21.58 27.2178 21.76C26.7778 21.98 26.2878 22.03 25.7478 21.91C25.4078 21.87 25.1478 21.78 24.9678 21.64C24.7878 21.46 24.6578 21.28 24.5778 21.1C24.4578 20.88 24.3878 20.67 24.3678 20.47C24.3078 20.29 24.2778 20.1 24.2778 19.9V4.48005C24.1578 4.48005 23.9078 4.48005 23.5278 4.48005C23.1478 4.48005 22.7378 4.48005 22.2978 4.48005C21.8778 4.46005 21.4778 4.44005 21.0978 4.42005C20.7178 4.40005 20.4578 4.38005 20.3178 4.36005C20.1978 4.34005 20.0078 4.31005 19.7478 4.27005C19.5078 4.23005 19.3078 4.19005 19.1478 4.15005C18.7278 4.03005 18.3978 3.84005 18.1578 3.58005C17.9378 3.32005 17.8278 3.03005 17.8278 2.71005C17.8278 2.59005 17.8278 2.47005 17.8278 2.35005C17.8278 2.23005 17.8478 2.12005 17.8878 2.02005C17.9478 1.78005 18.1078 1.58005 18.3678 1.42005C18.4478 1.36005 18.5678 1.29005 18.7278 1.21005C18.9078 1.11005 19.0778 1.04005 19.2378 1.00005C19.4778 0.920048 19.7778 0.860048 20.1378 0.820049C20.2978 0.800049 20.4578 0.790049 20.6178 0.790049C20.7778 0.790049 20.9478 0.790049 21.1278 0.790049C21.8278 0.790049 22.4878 0.790049 23.1078 0.790049C23.7478 0.790049 24.4178 0.780049 25.1178 0.76005C26.2778 0.740049 27.4278 0.740049 28.5678 0.76005C29.7278 0.76005 30.8778 0.780049 32.0178 0.820049C32.2778 0.840049 32.5278 0.870049 32.7678 0.91005C33.0078 0.950049 33.2478 1.02005 33.4878 1.12005C33.6678 1.18005 33.8378 1.26005 33.9978 1.36005C34.1578 1.44005 34.2878 1.55005 34.3878 1.69005Z" fill="#fff"/>
<path d="M53.4851 2.41005C53.6051 3.37005 53.6751 4.49005 53.6951 5.77005C53.7151 7.03005 53.6951 8.31005 53.6351 9.61005C53.5951 10.89 53.5051 12.1101 53.3651 13.2701C53.2251 14.4101 53.0551 15.33 52.8551 16.03C52.7151 16.45 52.5451 16.89 52.3451 17.35C52.1651 17.79 51.9651 18.19 51.7451 18.55C51.4251 19.09 51.0351 19.57 50.5751 19.99C50.1151 20.39 49.6051 20.7401 49.0451 21.0401C48.5051 21.3201 47.9251 21.5401 47.3051 21.7001C46.7051 21.8601 46.1051 21.95 45.5051 21.97C44.4451 22.01 43.4351 21.8601 42.4751 21.5201C41.5351 21.1601 40.6651 20.6 39.8651 19.84C39.2651 19.26 38.7851 18.64 38.4251 17.98C38.0651 17.32 37.7851 16.63 37.5851 15.91C37.3851 15.17 37.2551 14.41 37.1951 13.63C37.1551 12.85 37.1351 12.05 37.1351 11.23C37.1351 10.85 37.1251 10.38 37.1051 9.82005C37.1051 9.24005 37.1051 8.65005 37.1051 8.05005C37.1051 7.43005 37.1051 6.83005 37.1051 6.25005C37.1051 5.67005 37.1151 5.18005 37.1351 4.78005C37.1351 4.52005 37.1351 4.24005 37.1351 3.94005C37.1351 3.62005 37.1451 3.31005 37.1651 3.01005C37.2051 2.69005 37.2651 2.39005 37.3451 2.11005C37.4251 1.81005 37.5451 1.54005 37.7051 1.30005C37.8851 1.04005 38.1351 0.850049 38.4551 0.730048C38.7751 0.610049 39.1051 0.550049 39.4451 0.550049C39.8051 0.550049 40.1451 0.620049 40.4651 0.76005C40.7851 0.900049 41.0451 1.10005 41.2451 1.36005C41.3451 1.52005 41.4151 1.68005 41.4551 1.84005C41.4951 2.00005 41.5251 2.18005 41.5451 2.38005C41.5851 3.04005 41.6051 3.79005 41.6051 4.63005C41.6251 5.47005 41.6251 6.29005 41.6051 7.09005C41.6051 7.87005 41.5951 8.59005 41.5751 9.25005C41.5551 9.91005 41.5451 10.4 41.5451 10.72C41.5451 11.92 41.6051 13.01 41.7251 13.99C41.8451 14.95 42.1251 15.75 42.5651 16.39C42.9651 16.97 43.4351 17.34 43.9751 17.5C44.5151 17.66 45.0551 17.71 45.5951 17.65C46.0951 17.59 46.5951 17.4101 47.0951 17.1101C47.6151 16.7901 48.0251 16.3301 48.3251 15.7301C48.4451 15.51 48.5451 15.26 48.6251 14.98C48.7051 14.7 48.7651 14.44 48.8051 14.2C48.8851 13.44 48.9551 12.56 49.0151 11.56C49.0751 10.54 49.1251 9.50005 49.1651 8.44005C49.2051 7.38005 49.2251 6.34005 49.2251 5.32005C49.2251 4.30005 49.2151 3.38005 49.1951 2.56005C49.2351 2.20005 49.3451 1.87005 49.5251 1.57005C49.6851 1.31005 49.9151 1.08005 50.2151 0.880048C50.5151 0.680048 50.9251 0.580048 51.4451 0.580048C51.8651 0.600048 52.2051 0.710049 52.4651 0.91005C52.7251 1.09005 52.9351 1.29005 53.0951 1.51005C53.2751 1.77005 53.4051 2.07005 53.4851 2.41005Z" fill="#fff"/>
<path d="M71.8988 9.94005C71.9388 10.6 71.9288 11.28 71.8688 11.98C71.8288 12.68 71.7588 13.36 71.6588 14.0201C71.4588 15.16 71.0888 16.27 70.5488 17.35C70.0088 18.43 69.2188 19.3501 68.1788 20.1101C67.0988 20.9101 65.8688 21.46 64.4888 21.76C63.1088 22.04 61.7388 22.2101 60.3788 22.2701C59.9188 22.3101 59.4488 22.3201 58.9688 22.3001C58.5088 22.3001 58.0588 22.25 57.6188 22.15C57.2588 22.09 56.9888 21.98 56.8088 21.82C56.7088 21.76 56.6288 21.68 56.5688 21.58C56.5088 21.48 56.4588 21.3801 56.4188 21.2801C56.3588 21.1801 56.3088 21.08 56.2688 20.98C56.2488 20.86 56.2188 20.7401 56.1788 20.6201C56.1588 20.5201 56.1388 20.43 56.1188 20.35C56.1188 20.25 56.1188 20.16 56.1188 20.08V2.95005C56.1188 2.81005 56.1188 2.68005 56.1188 2.56005C56.1188 2.44005 56.1388 2.32005 56.1788 2.20005C56.2188 1.92005 56.2788 1.69005 56.3588 1.51005C56.4388 1.27005 56.5488 1.10005 56.6888 1.00005C56.8088 0.900048 56.9288 0.830049 57.0488 0.790049C57.1688 0.730049 57.2788 0.680049 57.3788 0.640049C57.4988 0.600049 57.6188 0.600049 57.7388 0.640049C57.8788 0.660049 58.0288 0.630049 58.1888 0.550049L63.1988 0.670049C64.5188 0.710049 65.6988 1.02005 66.7388 1.60005C67.7788 2.16005 68.6688 2.88005 69.4088 3.76005C70.1488 4.64005 70.7288 5.63005 71.1488 6.73005C71.5688 7.81005 71.8188 8.88005 71.8988 9.94005ZM66.3188 15.64C66.6988 15.04 66.9788 14.35 67.1588 13.57C67.3388 12.79 67.4188 12 67.3988 11.2C67.3788 10.38 67.2688 9.59005 67.0688 8.83005C66.8688 8.05005 66.5888 7.36005 66.2288 6.76005C65.9488 6.32005 65.5888 5.96005 65.1488 5.68005C64.7088 5.40005 64.2188 5.19005 63.6788 5.05005C63.1388 4.89005 62.5588 4.78005 61.9388 4.72005C61.3388 4.66005 60.7488 4.63005 60.1688 4.63005C60.1888 5.21005 60.1988 5.77005 60.1988 6.31005C60.1988 6.85005 60.1988 7.42005 60.1988 8.02005C60.1788 8.74005 60.1688 9.44005 60.1688 10.12C60.1688 10.8 60.1688 11.46 60.1688 12.1V18.22C60.7888 18.2 61.3788 18.17 61.9388 18.13C62.5188 18.07 63.0688 17.9501 63.5888 17.7701C64.1288 17.59 64.6188 17.3401 65.0588 17.0201C65.5188 16.68 65.9388 16.22 66.3188 15.64Z" fill="#fff"/>
<path d="M88.4014 2.05005C88.4214 2.15005 88.4214 2.25005 88.4014 2.35005C88.4014 2.45005 88.3714 2.56005 88.3114 2.68005C88.2314 2.96005 88.1414 3.21005 88.0414 3.43005C87.9214 3.71005 87.7714 3.95005 87.5914 4.15005C87.5114 4.27005 87.4314 4.39005 87.3514 4.51005C87.2914 4.61005 87.2314 4.71005 87.1714 4.81005L86.7814 5.32005L82.9414 10.87L82.2514 11.74V19.72C82.2114 19.82 82.1914 19.92 82.1914 20.0201C82.1914 20.12 82.1814 20.23 82.1614 20.35C82.1214 20.4501 82.0914 20.55 82.0714 20.65C82.0514 20.73 82.0214 20.82 81.9814 20.92C81.9414 21 81.9214 21.06 81.9214 21.1C81.9014 21.14 81.8814 21.1701 81.8614 21.1901C81.8614 21.2101 81.8514 21.2401 81.8314 21.2801C81.7114 21.4801 81.5414 21.66 81.3214 21.82C80.8814 22.04 80.3814 22.09 79.8214 21.97C79.5014 21.93 79.2614 21.83 79.1014 21.67C79.0014 21.61 78.9214 21.5401 78.8614 21.4601C78.8014 21.3801 78.7414 21.2901 78.6814 21.1901C78.6414 21.0701 78.6014 20.9601 78.5614 20.8601C78.5214 20.7601 78.4914 20.66 78.4714 20.56C78.4314 20.46 78.4114 20.3701 78.4114 20.2901C78.4114 20.1901 78.4114 20.1 78.4114 20.0201V11.83L77.7514 10.81L73.8514 5.29005L73.5214 4.75005C73.4014 4.57005 73.2514 4.36005 73.0714 4.12005C72.9114 3.90005 72.7714 3.66005 72.6514 3.40005C72.5714 3.28005 72.5014 3.16005 72.4414 3.04005C72.4014 2.90005 72.3614 2.76005 72.3214 2.62005C72.2614 2.42005 72.2514 2.22005 72.2914 2.02005C72.3514 1.76005 72.4714 1.54005 72.6514 1.36005C72.8514 1.18005 73.0614 1.04005 73.2814 0.940049C73.5614 0.740049 73.8814 0.660049 74.2414 0.700049C74.4614 0.700049 74.6514 0.740049 74.8114 0.820049C74.9714 0.900049 75.1314 0.990049 75.2914 1.09005C75.4714 1.23005 75.6414 1.38005 75.8014 1.54005C75.9814 1.70005 76.1414 1.87005 76.2814 2.05005C76.4414 2.25005 76.5914 2.44005 76.7314 2.62005C76.8714 2.78005 77.0114 2.97005 77.1514 3.19005L77.2414 3.31005C77.7214 3.95005 78.1714 4.57005 78.5914 5.17005C79.0114 5.75005 79.4514 6.38005 79.9114 7.06005C79.9514 7.10005 80.0114 7.18005 80.0914 7.30005C80.1714 7.42005 80.2614 7.56005 80.3614 7.72005C80.4414 7.58005 80.5114 7.46005 80.5714 7.36005C80.6514 7.24005 80.7114 7.16005 80.7514 7.12005C81.2114 6.44005 81.6514 5.80005 82.0714 5.20005C82.4914 4.60005 82.9414 3.98005 83.4214 3.34005L83.4814 3.22005C83.6414 3.04005 83.7814 2.86005 83.9014 2.68005C84.0414 2.48005 84.1914 2.28005 84.3514 2.08005C84.6114 1.72005 84.9614 1.41005 85.4014 1.15005C85.7214 0.930049 86.0514 0.790049 86.3914 0.730048C86.7714 0.690049 87.1014 0.770049 87.3814 0.970049C87.5014 1.05005 87.6114 1.12005 87.7114 1.18005C87.8314 1.24005 87.9314 1.31005 88.0114 1.39005C88.1714 1.57005 88.3014 1.79005 88.4014 2.05005Z" fill="#fff"/>
<path d="M106.097 1.51005C106.297 1.77005 106.397 2.03005 106.397 2.29005C106.417 2.41005 106.417 2.56005 106.397 2.74005C106.397 2.92005 106.387 3.06005 106.367 3.16005C106.307 3.36005 106.167 3.56005 105.947 3.76005C105.887 3.82005 105.817 3.88005 105.737 3.94005C105.657 3.98005 105.557 4.02005 105.437 4.06005C105.317 4.10005 105.197 4.13005 105.077 4.15005C104.957 4.15005 104.827 4.16005 104.687 4.18005C104.547 4.20005 104.417 4.22005 104.297 4.24005C104.177 4.24005 104.047 4.24005 103.907 4.24005H102.197V4.75005C102.177 6.55005 102.207 8.35005 102.287 10.15C102.387 11.95 102.377 13.75 102.257 15.55C102.197 16.15 102.107 16.77 101.987 17.41C101.867 18.03 101.667 18.62 101.387 19.18C101.127 19.72 100.777 20.22 100.337 20.68C99.8974 21.14 99.3374 21.5 98.6574 21.76C98.0174 22 97.3174 22.1701 96.5574 22.2701C95.7974 22.3701 95.0274 22.3801 94.2474 22.3001C93.4874 22.2201 92.7574 22.0501 92.0574 21.7901C91.3574 21.5301 90.7674 21.1701 90.2874 20.7101C90.0274 20.4701 89.7874 20.18 89.5674 19.84C89.3474 19.48 89.1974 19.11 89.1174 18.73C89.0374 18.33 89.0574 17.95 89.1774 17.59C89.2974 17.21 89.5774 16.9 90.0174 16.66C90.3974 16.44 90.7374 16.39 91.0374 16.51C91.3574 16.6301 91.6574 16.82 91.9374 17.08C92.2374 17.34 92.5374 17.61 92.8374 17.89C93.1574 18.17 93.5074 18.35 93.8874 18.43C94.7074 18.63 95.3774 18.64 95.8974 18.46C96.4174 18.26 96.8274 17.9501 97.1274 17.5301C97.4274 17.1101 97.6374 16.6 97.7574 16C97.8974 15.4 97.9774 14.79 97.9974 14.17C98.0374 13.55 98.0474 12.95 98.0274 12.37C98.0074 11.79 98.0074 11.3 98.0274 10.9C98.0474 9.84005 98.0474 8.80005 98.0274 7.78005C98.0074 6.76005 97.9974 5.72005 97.9974 4.66005V4.54005C98.0174 4.50005 98.0274 4.44005 98.0274 4.36005H97.9374C97.8174 4.34005 97.5674 4.33005 97.1874 4.33005C96.8074 4.31005 96.3974 4.30005 95.9574 4.30005C95.5174 4.30005 95.0974 4.30005 94.6974 4.30005C94.3174 4.28005 94.0674 4.27005 93.9474 4.27005H93.5274V4.24005C93.3674 4.22005 93.2074 4.19005 93.0474 4.15005C92.8874 4.11005 92.7274 4.07005 92.5674 4.03005C92.1874 3.91005 91.8974 3.72005 91.6974 3.46005C91.5974 3.36005 91.5174 3.20005 91.4574 2.98005C91.4174 2.76005 91.3974 2.57005 91.3974 2.41005C91.3974 2.31005 91.3974 2.20005 91.3974 2.08005C91.3974 1.96005 91.4174 1.85005 91.4574 1.75005C91.4974 1.53005 91.6374 1.33005 91.8774 1.15005C92.0374 1.03005 92.2274 0.940049 92.4474 0.880048C92.5874 0.840049 92.7274 0.810049 92.8674 0.790049C93.0074 0.77005 93.1574 0.750049 93.3174 0.730048C93.4574 0.710049 93.5974 0.700049 93.7374 0.700049C93.8774 0.700049 94.0274 0.700049 94.1874 0.700049H97.0674C97.1874 0.700049 97.3274 0.700049 97.4874 0.700049C97.6474 0.700049 97.8274 0.690049 98.0274 0.670049C98.8074 0.670049 99.5774 0.670049 100.337 0.670049C101.097 0.670049 101.837 0.680049 102.557 0.700049H102.737C102.957 0.700049 103.167 0.710049 103.367 0.730048C103.587 0.730048 103.807 0.730048 104.027 0.730048C104.487 0.750049 104.917 0.840049 105.317 1.00005C105.637 1.08005 105.897 1.25005 106.097 1.51005Z" fill="#fff"/>
<path d="M110.584 8.44005C111.244 8.12005 111.934 7.89005 112.654 7.75005C113.374 7.61005 114.085 7.58005 114.785 7.66005C115.505 7.74005 116.194 7.93005 116.854 8.23005C117.535 8.53005 118.155 8.95005 118.715 9.49005C119.175 9.95005 119.574 10.51 119.914 11.17C120.254 11.81 120.504 12.44 120.664 13.0601C121.004 14.16 121.054 15.27 120.814 16.39C120.574 17.51 120.164 18.55 119.584 19.51C119.304 19.95 118.955 20.3501 118.535 20.7101C118.135 21.0501 117.704 21.3301 117.244 21.5501C116.644 21.8301 115.994 22.0201 115.294 22.1201C114.594 22.2401 113.914 22.2701 113.254 22.2101C112.054 22.1501 110.994 21.85 110.074 21.31C109.174 20.77 108.444 20.08 107.884 19.24C107.344 18.4 106.984 17.45 106.804 16.39C106.644 15.31 106.714 14.21 107.014 13.09C107.334 11.89 107.794 10.92 108.394 10.18C109.014 9.42005 109.744 8.84005 110.584 8.44005ZM111.484 12.46C111.184 12.74 110.954 13.09 110.794 13.51C110.634 13.93 110.534 14.37 110.494 14.83C110.454 15.27 110.484 15.72 110.584 16.18C110.704 16.62 110.884 17.02 111.124 17.38C111.324 17.68 111.684 17.93 112.204 18.13C112.724 18.33 113.264 18.45 113.824 18.49C114.464 18.53 115.024 18.36 115.504 17.98C115.984 17.58 116.344 17.09 116.584 16.51C116.844 15.93 116.964 15.3 116.944 14.62C116.924 13.94 116.744 13.32 116.404 12.76C116.164 12.36 115.824 12.07 115.384 11.89C114.964 11.69 114.515 11.59 114.035 11.59C113.575 11.57 113.114 11.64 112.654 11.8C112.194 11.94 111.804 12.16 111.484 12.46Z" fill="#fff"/>
<path d="M123.415 3.04005C123.455 2.32005 123.675 1.74005 124.075 1.30005C124.495 0.860049 125.085 0.740049 125.845 0.940049C126.205 1.04005 126.465 1.19005 126.625 1.39005C126.805 1.59005 126.925 1.83005 126.985 2.11005C127.065 2.37005 127.105 2.66005 127.105 2.98005C127.105 3.28005 127.105 3.58005 127.105 3.88005V8.02005C127.085 8.18005 127.075 8.34005 127.075 8.50005C127.095 8.64005 127.105 8.77005 127.105 8.89005V9.28005H127.855C128.075 9.28005 128.285 9.28005 128.485 9.28005C128.705 9.28005 128.895 9.27005 129.055 9.25005C130.155 9.25005 131.095 9.41005 131.875 9.73005C132.675 10.05 133.315 10.5 133.795 11.08C134.295 11.64 134.655 12.32 134.875 13.12C135.115 13.9 135.225 14.76 135.205 15.7C135.185 16.82 135.005 17.78 134.665 18.58C134.325 19.38 133.845 20.04 133.225 20.56C132.605 21.08 131.855 21.47 130.975 21.73C130.115 21.97 129.145 22.09 128.065 22.09C126.825 22.09 125.885 22.08 125.245 22.06C124.605 22.04 124.145 21.8601 123.865 21.5201C123.605 21.1801 123.465 20.59 123.445 19.75C123.425 18.91 123.415 17.68 123.415 16.06C123.415 14.5 123.415 12.96 123.415 11.44C123.435 9.92005 123.435 8.39005 123.415 6.85005C123.415 6.65005 123.405 6.44005 123.385 6.22005C123.385 6.00005 123.385 5.75005 123.385 5.47005C123.385 5.19005 123.385 4.86005 123.385 4.48005C123.385 4.08005 123.395 3.60005 123.415 3.04005ZM129.025 18.73C130.125 18.67 130.885 18.37 131.305 17.83C131.525 17.53 131.695 17.17 131.815 16.75C131.935 16.33 131.985 15.91 131.965 15.49C131.945 15.07 131.855 14.67 131.695 14.29C131.555 13.89 131.325 13.56 131.005 13.3C130.725 13.06 130.445 12.89 130.165 12.79C129.885 12.67 129.595 12.6 129.295 12.58C128.995 12.54 128.675 12.53 128.335 12.55C127.995 12.55 127.605 12.56 127.165 12.58V16.18L127.105 18.67C127.305 18.69 127.515 18.71 127.735 18.73C128.115 18.77 128.545 18.77 129.025 18.73Z" fill="#fff"/>
</svg>
